<svg height="255" style="
        width:661.3333740234375px;
        height:255px;
        background: #FFF;
        fill: none;
" width="661.3333740234375" x="0" xmlns="http://www.w3.org/2000/svg" xmlns:xlink="http://www.w3.org/1999/xlink" y="0"> <svg xmlns="http://www.w3.org/2000/svg"></svg> <svg class="role-diagram-draw-area" xmlns="http://www.w3.org/2000/svg"><g class="shapes-region" style="stroke: black; fill: none;"><g class="composite-shape axis2d" style="stroke-width: 1; stroke: rgb(0, 0, 0);"><path class="real" d=" M290.92,130.63 L427.33,130.63 M304.56,16 L304.56,143.36"></path><path d=" M420.33,125.63 L427.33,130.63 L420.33,135.63"></path><path d=" M299.56,23 L304.56,16 L309.56,23"></path><path d=" M324.56,125.63 L324.56,135.63 M344.56,125.63 L344.56,135.63 M364.56,125.63 L364.56,135.63 M384.56,125.63 L384.56,135.63 M404.56,125.63 L404.56,135.63 M299.56,110.63 L309.56,110.63 M299.56,90.63 L309.56,90.63 M299.56,70.63 L309.56,70.63 M299.56,50.63 L309.56,50.63"></path><g style="fill: rgb(0, 0, 0); fill-opacity: 1; font-size: 11px; font-weight: normal; text-anchor: end; stroke: none; font-family: Times;"></g></g><g class="composite-shape axis2d" style="stroke-width: 1; stroke: rgb(0, 0, 0);"><path class="real" d=" M319.01,130.06 L182.6,130.37 M305.67,244.72 L305.34,117.36"></path><path d=" M189.61,135.36 L182.6,130.37 L189.59,125.36"></path><path d=" M310.65,237.71 L305.67,244.72 L300.65,237.73"></path><path d=" M285.38,135.14 L285.36,125.14 M265.38,135.19 L265.36,125.19 M245.38,135.23 L245.36,125.23 M225.38,135.28 L225.36,125.28 M205.38,135.32 L205.36,125.32 M310.42,150.08 L300.42,150.11 M310.48,170.08 L300.48,170.11 M310.53,190.08 L300.53,190.11 M310.58,210.08 L300.58,210.11"></path><g style="fill: rgb(0, 0, 0); fill-opacity: 1; font-size: 11px; font-weight: normal; text-anchor: end; stroke: none; font-family: Times;"></g></g><g class="arrow-line"><path class="connection real" d="  M447.33,87 C371.33,97 243.33,84 247.33,130 C251.33,176 302.33,156 449.33,174" stroke-dasharray="" style="stroke: rgb(0, 0, 0); stroke-width: 1; fill: none; fill-opacity: 1;"></path></g><g></g></g><g></g><g></g><g></g></svg> <svg height="253.6666717529297" style="width:660px;height:253.6666717529297px;font-family:Asana-Math, Asana;background:#FFF;" width="660" xmlns="http://www.w3.org/2000/svg" xmlns:xlink="http://www.w3.org/1999/xlink"></svg> </svg>